<mxfile host="app.diagrams.net" modified="2023-11-25T14:27:40.766Z" agent="Mozilla/5.0 (Windows NT 10.0; Win64; x64) AppleWebKit/537.36 (KHTML, like Gecko) Chrome/119.0.0.0 Safari/537.36" etag="UWnJao7otIcnYvjD1i1P" version="22.1.4" type="device">
  <diagram id="C5RBs43oDa-KdzZeNtuy" name="Page-1">
    <mxGraphModel dx="1434" dy="780" grid="1" gridSize="10" guides="1" tooltips="1" connect="1" arrows="1" fold="1" page="1" pageScale="1" pageWidth="827" pageHeight="1169" math="0" shadow="0">
      <root>
        <mxCell id="WIyWlLk6GJQsqaUBKTNV-0" />
        <mxCell id="WIyWlLk6GJQsqaUBKTNV-1" parent="WIyWlLk6GJQsqaUBKTNV-0" />
        <mxCell id="voed31VkrFqZE40E7_od-0" value="&lt;font style=&quot;font-size: 16px;&quot;&gt;TicTacToe&lt;/font&gt;" style="swimlane;whiteSpace=wrap;html=1;" vertex="1" parent="WIyWlLk6GJQsqaUBKTNV-1">
          <mxGeometry x="271" y="10" width="339" height="400" as="geometry" />
        </mxCell>
        <mxCell id="voed31VkrFqZE40E7_od-6" value="&lt;font style=&quot;font-size: 14px;&quot;&gt;- spielfeld: char [3] [3]&lt;/font&gt;" style="text;html=1;strokeColor=none;fillColor=none;align=left;verticalAlign=middle;whiteSpace=wrap;rounded=0;" vertex="1" parent="voed31VkrFqZE40E7_od-0">
          <mxGeometry x="17.5" y="31" width="251" height="40" as="geometry" />
        </mxCell>
        <mxCell id="voed31VkrFqZE40E7_od-7" value="&lt;font style=&quot;font-size: 14px;&quot;&gt;- spieler1: Spieler&lt;/font&gt;" style="text;html=1;strokeColor=none;fillColor=none;align=left;verticalAlign=middle;whiteSpace=wrap;rounded=0;" vertex="1" parent="voed31VkrFqZE40E7_od-0">
          <mxGeometry x="17.5" y="60" width="251" height="40" as="geometry" />
        </mxCell>
        <mxCell id="voed31VkrFqZE40E7_od-8" value="&lt;font style=&quot;font-size: 14px;&quot;&gt;- spieler2: Spieler&lt;/font&gt;" style="text;html=1;strokeColor=none;fillColor=none;align=left;verticalAlign=middle;whiteSpace=wrap;rounded=0;" vertex="1" parent="voed31VkrFqZE40E7_od-0">
          <mxGeometry x="17" y="90" width="251" height="40" as="geometry" />
        </mxCell>
        <mxCell id="voed31VkrFqZE40E7_od-9" value="&lt;font style=&quot;font-size: 14px;&quot;&gt;- rundenzahl: int&lt;/font&gt;" style="text;html=1;strokeColor=none;fillColor=none;align=left;verticalAlign=middle;whiteSpace=wrap;rounded=0;" vertex="1" parent="voed31VkrFqZE40E7_od-0">
          <mxGeometry x="17" y="120" width="251" height="40" as="geometry" />
        </mxCell>
        <mxCell id="voed31VkrFqZE40E7_od-10" value="&lt;font style=&quot;font-size: 14px;&quot;&gt;- scoreboard: Map&amp;lt;Spieler, Integer&amp;gt;&lt;/font&gt;" style="text;html=1;strokeColor=none;fillColor=none;align=left;verticalAlign=middle;whiteSpace=wrap;rounded=0;" vertex="1" parent="voed31VkrFqZE40E7_od-0">
          <mxGeometry x="17" y="150" width="251" height="40" as="geometry" />
        </mxCell>
        <mxCell id="voed31VkrFqZE40E7_od-15" value="&lt;font style=&quot;font-size: 14px;&quot;&gt;+ pruefeSenkrecht(): bool&lt;/font&gt;" style="text;html=1;strokeColor=none;fillColor=none;align=left;verticalAlign=middle;whiteSpace=wrap;rounded=0;" vertex="1" parent="voed31VkrFqZE40E7_od-0">
          <mxGeometry x="17" y="230" width="251" height="40" as="geometry" />
        </mxCell>
        <mxCell id="voed31VkrFqZE40E7_od-16" value="&lt;font style=&quot;font-size: 14px;&quot;&gt;+ pruefeWaagerecht(): bool&lt;/font&gt;" style="text;html=1;strokeColor=none;fillColor=none;align=left;verticalAlign=middle;whiteSpace=wrap;rounded=0;" vertex="1" parent="voed31VkrFqZE40E7_od-0">
          <mxGeometry x="17.5" y="260" width="251" height="40" as="geometry" />
        </mxCell>
        <mxCell id="voed31VkrFqZE40E7_od-17" value="&lt;font style=&quot;font-size: 14px;&quot;&gt;+ pruefeDiagonal(): bool&lt;/font&gt;" style="text;html=1;strokeColor=none;fillColor=none;align=left;verticalAlign=middle;whiteSpace=wrap;rounded=0;" vertex="1" parent="voed31VkrFqZE40E7_od-0">
          <mxGeometry x="17.5" y="290" width="251" height="40" as="geometry" />
        </mxCell>
        <mxCell id="voed31VkrFqZE40E7_od-18" value="&lt;font style=&quot;font-size: 14px;&quot;&gt;+ aktuellesSpielfeldAnzeigen(): void&lt;/font&gt;" style="text;html=1;strokeColor=none;fillColor=none;align=left;verticalAlign=middle;whiteSpace=wrap;rounded=0;" vertex="1" parent="voed31VkrFqZE40E7_od-0">
          <mxGeometry x="17.5" y="320" width="251" height="40" as="geometry" />
        </mxCell>
        <mxCell id="voed31VkrFqZE40E7_od-12" value="" style="endArrow=none;html=1;rounded=0;exitX=0;exitY=0.5;exitDx=0;exitDy=0;" edge="1" parent="voed31VkrFqZE40E7_od-0">
          <mxGeometry width="50" height="50" relative="1" as="geometry">
            <mxPoint y="190" as="sourcePoint" />
            <mxPoint x="339" y="190" as="targetPoint" />
            <Array as="points" />
          </mxGeometry>
        </mxCell>
        <mxCell id="voed31VkrFqZE40E7_od-20" value="" style="rounded=1;whiteSpace=wrap;html=1;fillColor=none;strokeColor=#82b366;strokeWidth=2;" vertex="1" parent="voed31VkrFqZE40E7_od-0">
          <mxGeometry x="9" y="240" width="231" height="80" as="geometry" />
        </mxCell>
        <mxCell id="voed31VkrFqZE40E7_od-23" value="&lt;font style=&quot;font-size: 14px;&quot;&gt;+ scoreboardAusgeben(): Map&amp;lt;Spieler, Integer&amp;gt;&lt;/font&gt;" style="text;html=1;strokeColor=none;fillColor=none;align=left;verticalAlign=middle;whiteSpace=wrap;rounded=0;" vertex="1" parent="voed31VkrFqZE40E7_od-0">
          <mxGeometry x="17.5" y="350" width="302.5" height="40" as="geometry" />
        </mxCell>
        <mxCell id="voed31VkrFqZE40E7_od-14" value="&lt;font style=&quot;font-size: 14px;&quot;&gt;+ initialisieren(): void&lt;/font&gt;" style="text;html=1;strokeColor=none;fillColor=none;align=left;verticalAlign=middle;whiteSpace=wrap;rounded=0;" vertex="1" parent="voed31VkrFqZE40E7_od-0">
          <mxGeometry x="17" y="200" width="251" height="40" as="geometry" />
        </mxCell>
        <mxCell id="voed31VkrFqZE40E7_od-21" value="" style="endArrow=none;html=1;rounded=0;exitX=1;exitY=0;exitDx=0;exitDy=0;strokeWidth=2;fillColor=#d5e8d4;strokeColor=#82b366;" edge="1" parent="WIyWlLk6GJQsqaUBKTNV-1">
          <mxGeometry width="50" height="50" relative="1" as="geometry">
            <mxPoint x="510" y="260" as="sourcePoint" />
            <mxPoint x="640" y="260" as="targetPoint" />
            <Array as="points">
              <mxPoint x="609" y="260" />
              <mxPoint x="590" y="260" />
            </Array>
          </mxGeometry>
        </mxCell>
        <mxCell id="voed31VkrFqZE40E7_od-22" value="ggf. zu einer Funktion &quot;pruefeSieg(): bool&quot; zusammenfassen" style="text;html=1;strokeColor=#82b366;fillColor=#d5e8d4;align=center;verticalAlign=middle;whiteSpace=wrap;rounded=0;" vertex="1" parent="WIyWlLk6GJQsqaUBKTNV-1">
          <mxGeometry x="640" y="230" width="170" height="70" as="geometry" />
        </mxCell>
        <mxCell id="voed31VkrFqZE40E7_od-25" value="&lt;font style=&quot;font-size: 16px;&quot;&gt;Spieler&lt;/font&gt;" style="swimlane;whiteSpace=wrap;html=1;" vertex="1" parent="WIyWlLk6GJQsqaUBKTNV-1">
          <mxGeometry x="271" y="500" width="339" height="100" as="geometry" />
        </mxCell>
        <mxCell id="voed31VkrFqZE40E7_od-28" value="&lt;font style=&quot;font-size: 14px;&quot;&gt;- symbol: char&lt;/font&gt;" style="text;html=1;strokeColor=none;fillColor=none;align=left;verticalAlign=middle;whiteSpace=wrap;rounded=0;" vertex="1" parent="voed31VkrFqZE40E7_od-25">
          <mxGeometry x="17" y="20" width="251" height="40" as="geometry" />
        </mxCell>
        <mxCell id="voed31VkrFqZE40E7_od-31" value="" style="endArrow=none;html=1;rounded=0;exitX=0;exitY=0.5;exitDx=0;exitDy=0;" edge="1" parent="voed31VkrFqZE40E7_od-25">
          <mxGeometry width="50" height="50" relative="1" as="geometry">
            <mxPoint x="-0.75" y="59" as="sourcePoint" />
            <mxPoint x="338.25" y="59" as="targetPoint" />
            <Array as="points" />
          </mxGeometry>
        </mxCell>
        <mxCell id="voed31VkrFqZE40E7_od-26" value="" style="endArrow=classic;html=1;rounded=0;entryX=0.5;entryY=1;entryDx=0;entryDy=0;exitX=0.5;exitY=0;exitDx=0;exitDy=0;" edge="1" parent="WIyWlLk6GJQsqaUBKTNV-1" source="voed31VkrFqZE40E7_od-25" target="voed31VkrFqZE40E7_od-0">
          <mxGeometry width="50" height="50" relative="1" as="geometry">
            <mxPoint x="390" y="520" as="sourcePoint" />
            <mxPoint x="400" y="410" as="targetPoint" />
          </mxGeometry>
        </mxCell>
        <mxCell id="voed31VkrFqZE40E7_od-27" value="&lt;font style=&quot;font-size: 14px;&quot;&gt;2&lt;/font&gt;" style="text;html=1;strokeColor=none;fillColor=none;align=center;verticalAlign=middle;whiteSpace=wrap;rounded=0;" vertex="1" parent="WIyWlLk6GJQsqaUBKTNV-1">
          <mxGeometry x="420" y="470" width="60" height="30" as="geometry" />
        </mxCell>
        <mxCell id="voed31VkrFqZE40E7_od-32" value="&lt;font style=&quot;font-size: 14px;&quot;&gt;+ setzeSymbol(): void&lt;/font&gt;" style="text;html=1;strokeColor=none;fillColor=none;align=left;verticalAlign=middle;whiteSpace=wrap;rounded=0;" vertex="1" parent="WIyWlLk6GJQsqaUBKTNV-1">
          <mxGeometry x="288" y="561" width="251" height="40" as="geometry" />
        </mxCell>
        <mxCell id="voed31VkrFqZE40E7_od-33" value="&lt;font style=&quot;font-size: 16px;&quot;&gt;MenschlicherSpieler&lt;/font&gt;" style="swimlane;whiteSpace=wrap;html=1;" vertex="1" parent="WIyWlLk6GJQsqaUBKTNV-1">
          <mxGeometry x="81" y="700" width="339" height="140" as="geometry" />
        </mxCell>
        <mxCell id="voed31VkrFqZE40E7_od-34" value="&lt;font style=&quot;font-size: 14px;&quot;&gt;- symbol: char&lt;/font&gt;" style="text;html=1;strokeColor=none;fillColor=none;align=left;verticalAlign=middle;whiteSpace=wrap;rounded=0;" vertex="1" parent="voed31VkrFqZE40E7_od-33">
          <mxGeometry x="17" y="20" width="251" height="40" as="geometry" />
        </mxCell>
        <mxCell id="voed31VkrFqZE40E7_od-35" value="" style="endArrow=none;html=1;rounded=0;exitX=0;exitY=0.5;exitDx=0;exitDy=0;" edge="1" parent="voed31VkrFqZE40E7_od-33">
          <mxGeometry width="50" height="50" relative="1" as="geometry">
            <mxPoint x="-0.75" y="59" as="sourcePoint" />
            <mxPoint x="338.25" y="59" as="targetPoint" />
            <Array as="points" />
          </mxGeometry>
        </mxCell>
        <mxCell id="voed31VkrFqZE40E7_od-40" value="&lt;font style=&quot;font-size: 14px;&quot;&gt;+ revanche(yOrN: char): void&lt;/font&gt;" style="text;html=1;strokeColor=none;fillColor=none;align=left;verticalAlign=middle;whiteSpace=wrap;rounded=0;" vertex="1" parent="voed31VkrFqZE40E7_od-33">
          <mxGeometry x="17" y="90" width="301" height="40" as="geometry" />
        </mxCell>
        <mxCell id="voed31VkrFqZE40E7_od-39" value="&lt;font style=&quot;font-size: 14px;&quot;&gt;+ setzeSymbol(zeile: int, spalte: int): bool&lt;/font&gt;" style="text;html=1;strokeColor=none;fillColor=none;align=left;verticalAlign=middle;whiteSpace=wrap;rounded=0;" vertex="1" parent="voed31VkrFqZE40E7_od-33">
          <mxGeometry x="17" y="60" width="301" height="40" as="geometry" />
        </mxCell>
        <mxCell id="voed31VkrFqZE40E7_od-36" value="&lt;font style=&quot;font-size: 16px;&quot;&gt;ComputerSpieler&lt;/font&gt;" style="swimlane;whiteSpace=wrap;html=1;" vertex="1" parent="WIyWlLk6GJQsqaUBKTNV-1">
          <mxGeometry x="460" y="700" width="339" height="100" as="geometry" />
        </mxCell>
        <mxCell id="voed31VkrFqZE40E7_od-37" value="&lt;font style=&quot;font-size: 14px;&quot;&gt;- symbol: char&lt;/font&gt;" style="text;html=1;strokeColor=none;fillColor=none;align=left;verticalAlign=middle;whiteSpace=wrap;rounded=0;" vertex="1" parent="voed31VkrFqZE40E7_od-36">
          <mxGeometry x="17" y="20" width="251" height="40" as="geometry" />
        </mxCell>
        <mxCell id="voed31VkrFqZE40E7_od-38" value="" style="endArrow=none;html=1;rounded=0;exitX=0;exitY=0.5;exitDx=0;exitDy=0;" edge="1" parent="voed31VkrFqZE40E7_od-36">
          <mxGeometry width="50" height="50" relative="1" as="geometry">
            <mxPoint x="-0.75" y="59" as="sourcePoint" />
            <mxPoint x="338.25" y="59" as="targetPoint" />
            <Array as="points" />
          </mxGeometry>
        </mxCell>
        <mxCell id="voed31VkrFqZE40E7_od-41" value="&lt;font style=&quot;font-size: 14px;&quot;&gt;+ setzeSymbol(): bool&lt;/font&gt;" style="text;html=1;strokeColor=none;fillColor=none;align=left;verticalAlign=middle;whiteSpace=wrap;rounded=0;" vertex="1" parent="voed31VkrFqZE40E7_od-36">
          <mxGeometry x="19" y="60" width="301" height="40" as="geometry" />
        </mxCell>
        <mxCell id="voed31VkrFqZE40E7_od-44" value="Extends" style="endArrow=block;endSize=16;endFill=0;html=1;rounded=0;exitX=0.475;exitY=-0.014;exitDx=0;exitDy=0;exitPerimeter=0;entryX=0.25;entryY=1;entryDx=0;entryDy=0;" edge="1" parent="WIyWlLk6GJQsqaUBKTNV-1" source="voed31VkrFqZE40E7_od-33" target="voed31VkrFqZE40E7_od-32">
          <mxGeometry width="160" relative="1" as="geometry">
            <mxPoint x="330" y="590" as="sourcePoint" />
            <mxPoint x="490" y="590" as="targetPoint" />
          </mxGeometry>
        </mxCell>
        <mxCell id="voed31VkrFqZE40E7_od-45" value="Extends" style="endArrow=block;endSize=16;endFill=0;html=1;rounded=0;exitX=0.5;exitY=0;exitDx=0;exitDy=0;entryX=1;entryY=1;entryDx=0;entryDy=0;" edge="1" parent="WIyWlLk6GJQsqaUBKTNV-1" source="voed31VkrFqZE40E7_od-36" target="voed31VkrFqZE40E7_od-32">
          <mxGeometry width="160" relative="1" as="geometry">
            <mxPoint x="330" y="590" as="sourcePoint" />
            <mxPoint x="540" y="620" as="targetPoint" />
          </mxGeometry>
        </mxCell>
      </root>
    </mxGraphModel>
  </diagram>
</mxfile>
